<?xml version="1.0" standalone="no"?>
<!DOCTYPE svg PUBLIC "-//W3C//DTD SVG 20010904//EN"
 "http://www.w3.org/TR/2001/REC-SVG-20010904/DTD/svg10.dtd">
<svg version="1.0" xmlns="http://www.w3.org/2000/svg"
 width="512.000000pt" height="512.000000pt" viewBox="0 0 512.000000 512.000000"
 preserveAspectRatio="xMidYMid meet">

<g transform="translate(0.000000,512.000000) scale(0.100000,-0.100000)"
fill="#000000" stroke="none">
<path d="M2443 4900 c-87 -10 -162 -50 -247 -133 -256 -252 -540 -818 -780
-1556 -130 -400 -167 -640 -115 -741 18 -34 26 -40 54 -40 18 0 35 -6 37 -12
4 -10 10 -10 30 -1 19 8 29 8 37 0 7 -7 18 -7 37 2 14 6 40 9 58 6 29 -6 34
-3 51 29 11 20 25 36 31 36 14 0 24 23 24 56 0 36 27 57 115 88 110 39 258
136 285 187 6 11 27 81 46 157 26 100 34 149 29 182 -7 57 7 42 34 -38 25 -73
27 -163 6 -242 -8 -30 -15 -68 -15 -85 0 -16 -12 -64 -26 -105 -38 -112 -63
-234 -70 -340 -8 -114 8 -205 97 -570 l60 -245 -7 -211 -7 -212 31 -68 c17
-38 36 -94 42 -124 7 -30 26 -104 42 -163 36 -128 35 -154 -12 -356 l-33 -144
23 -19 c18 -14 40 -18 114 -18 125 0 134 7 118 91 -7 35 -12 89 -11 120 1 34
-5 67 -15 87 -9 17 -16 44 -16 60 0 16 -7 46 -15 65 -20 49 -19 116 6 298 17
122 19 175 13 254 -8 110 -8 121 1 533 8 311 20 357 36 129 5 -75 16 -171 25
-214 12 -57 14 -102 10 -169 -6 -75 -4 -102 13 -155 70 -225 69 -212 26 -329
-14 -37 -16 -65 -10 -158 5 -80 4 -121 -5 -142 -10 -25 -10 -34 4 -55 22 -33
86 -65 132 -65 47 0 104 53 104 98 0 50 -31 183 -56 244 -13 31 -27 81 -30
110 -6 49 -2 66 47 189 60 149 55 110 48 449 -3 136 -2 149 24 220 35 99 46
173 53 360 8 182 -6 280 -60 436 -18 54 -39 133 -46 174 -7 41 -21 103 -32
138 -14 48 -18 77 -12 118 6 53 24 76 24 31 0 -60 75 -264 121 -327 44 -61
159 -109 308 -130 75 -11 159 -41 173 -63 4 -7 8 -20 8 -30 0 -10 14 -35 31
-56 26 -33 38 -39 81 -44 27 -4 55 -10 62 -15 20 -16 66 -23 86 -12 12 6 28 7
43 1 13 -5 42 -7 65 -4 49 7 59 26 68 122 8 86 -6 132 -132 417 -51 117 -107
260 -124 319 -58 202 -224 585 -431 995 -95 190 -130 248 -180 305 -33 39 -74
93 -91 122 -16 28 -47 68 -68 87 -67 60 -225 93 -367 76z m292 -43 c73 -34
100 -58 130 -117 13 -25 55 -84 95 -130 63 -75 88 -119 207 -360 219 -445 366
-789 405 -945 11 -44 63 -177 115 -295 127 -289 147 -348 140 -425 -8 -82 -21
-115 -47 -115 -17 0 -20 4 -15 20 5 15 -2 23 -36 40 -53 28 -59 32 -133 106
-54 55 -70 64 -136 84 -112 33 -214 83 -275 136 -30 25 -79 58 -107 73 -70 36
-88 71 -87 172 1 50 -7 103 -21 154 -20 71 -21 86 -11 171 20 168 18 181 -37
234 -29 28 -74 57 -115 74 -62 27 -68 32 -78 69 -12 44 -46 82 -98 110 -32 17
-33 19 -26 65 4 26 20 67 36 91 19 29 29 57 29 80 0 20 2 65 5 101 5 53 3 72
-13 100 -40 73 -163 118 -247 90 -61 -20 -123 -84 -140 -144 -18 -64 -18 -181
1 -218 21 -41 54 -149 54 -178 0 -14 -9 -39 -19 -56 -22 -36 -133 -113 -218
-150 -32 -14 -68 -35 -81 -47 -38 -35 -55 -116 -53 -257 0 -69 -4 -141 -9
-160 -6 -19 -13 -87 -17 -150 l-6 -115 -34 -30 c-19 -16 -83 -75 -142 -131
-93 -88 -116 -104 -181 -129 -58 -22 -87 -40 -127 -81 -29 -29 -53 -57 -53
-63 0 -5 -14 -12 -30 -16 -17 -4 -37 -13 -45 -21 -13 -13 -15 -12 -21 12 -12
47 4 235 30 344 69 302 277 882 432 1209 222 466 437 748 622 818 26 9 75 12
167 10 117 -3 136 -5 190 -30z"/>
</g>
</svg>
